<?xml version="1.0" encoding="iso-8859-1"?>
<!-- Uploaded to: SVG Repo, www.svgrepo.com, Generator: SVG Repo Mixer Tools -->
<svg height="800px" width="800px" version="1.1" id="Layer_1" xmlns="http://www.w3.org/2000/svg" xmlns:xlink="http://www.w3.org/1999/xlink" 
	 viewBox="0 0 512 512" xml:space="preserve">
<path style="fill:#FC6760;" d="M256,10.199c-85.996,0-155.708,69.713-155.708,155.708S170.004,321.617,256,321.617
	s155.708-69.713,155.708-155.708S341.996,10.199,256,10.199z M256,256c-49.757,0-90.093-40.336-90.093-90.093
	S206.243,75.816,256,75.816s90.093,40.336,90.093,90.093S305.757,256,256,256z"/>
<g>
	<path style="fill:#00537B;" d="M356.292,165.907c0-55.301-44.991-100.292-100.292-100.292s-100.292,44.991-100.292,100.292
		S200.699,266.199,256,266.199S356.292,221.208,356.292,165.907z M176.107,165.907c0-44.053,35.84-79.893,79.893-79.893
		s79.893,35.84,79.893,79.893s-35.84,79.893-79.893,79.893S176.107,209.961,176.107,165.907z"/>
	<path style="fill:#00537B;" d="M421.907,165.907C421.907,74.426,347.482,0,256,0S90.093,74.426,90.093,165.907
		c0,87.704,68.407,159.718,154.667,165.519v106.016h-42.918c-5.632,0-10.199,4.566-10.199,10.199s4.567,10.199,10.199,10.199h42.918
		v43.961c0,5.633,4.567,10.199,10.199,10.199c5.632,0,10.199-4.566,10.199-10.199V457.84h45.002c5.632,0,10.199-4.566,10.199-10.199
		s-4.567-10.199-10.199-10.199h-45.002V331.559C352.397,326.79,421.907,254.317,421.907,165.907z M110.491,165.907
		c0-80.234,65.275-145.509,145.509-145.509s145.509,65.275,145.509,145.509S336.234,311.416,256,311.416
		S110.491,246.141,110.491,165.907z"/>
	<path style="fill:#00537B;" d="M300.9,61.936c41.504,17.95,68.321,58.762,68.321,103.973c0,5.633,4.567,10.199,10.199,10.199
		c5.632,0,10.199-4.566,10.199-10.199c0-53.353-31.646-101.514-80.623-122.694c-5.171-2.236-11.174,0.143-13.41,5.312
		C293.352,53.696,295.73,59.7,300.9,61.936z"/>
	<path style="fill:#00537B;" d="M256,52.686c3.188,0,6.406,0.134,9.566,0.398c0.29,0.023,0.575,0.036,0.861,0.036
		c5.249,0,9.709-4.027,10.152-9.351c0.469-5.613-3.701-10.544-9.314-11.013c-3.722-0.311-7.513-0.468-11.265-0.468
		c-5.632,0-10.199,4.566-10.199,10.199S250.368,52.686,256,52.686z"/>
</g>
</svg>